# xmcd
#
# Track frame offsets:
#	150
#	18030
#	35700
#	53617
#	70355
#	88447
#	107100
#	125362
#	143385
#	162237
#	181917
#
# Disc length: 2966 seconds
#
# Revision: 1
# Processed by: cddbd v1.5.2PL0 Copyright (c) Steve Scherf et al.
# Submitted via: audiograbber 1.83.01
#
DISCID=8e0b940b
DTITLE=Ian McNamara - Macca's First Eleven
DYEAR=2007
DGENRE=Rock
TTITLE0=Rock And Roll Outlaw
TTITLE1=After The Rain
TTITLE2=Best Of Both Worlds
TTITLE3=Cool World
TTITLE4=Look What You've Done
TTITLE5=Only Lonely
TTITLE6=Rock And Roll Damnation
TTITLE7=Send A Message
TTITLE8=Unpublished Critics
TTITLE9=Stuck On You
TTITLE10=Baby I've Got You On My Mind/Between The Saddle And The Ground
EXTD=
EXTT0=
EXTT1=
EXTT2=
EXTT3=
EXTT4=
EXTT5=
EXTT6=
EXTT7=
EXTT8=
EXTT9=
EXTT10=
PLAYORDER=
